<svg width="141" height="48" viewBox="0 0 141 48" fill="none" xmlns="http://www.w3.org/2000/svg">
<g clip-path="url(#clip0_3_521)">
<path d="M21.3227 3.0791C9.7247 3.0791 0.322266 12.4813 0.322266 24.0792C0.322266 35.6777 9.7247 45.0791 21.3227 45.0791C32.9219 45.0791 42.3233 35.6777 42.3233 24.0792C42.3233 12.482 32.9219 3.0801 21.3224 3.0801L21.3227 3.0791ZM30.9533 33.3673C30.5771 33.9842 29.7696 34.1798 29.1528 33.8011C24.2221 30.7894 18.015 30.1073 10.705 31.7774C10.0006 31.9379 9.29839 31.4966 9.1379 30.7919C8.97665 30.0872 9.41625 29.3851 10.1224 29.2246C18.122 27.3969 24.9839 28.1839 30.5195 31.5668C31.1364 31.9454 31.332 32.7504 30.9533 33.3673ZM33.5237 27.6492C33.0497 28.4196 32.0416 28.6628 31.2718 28.1889C25.6269 24.7192 17.0222 23.7144 10.3454 25.7411C9.47945 26.0026 8.56489 25.5146 8.30208 24.6502C8.04127 23.7843 8.52953 22.8715 9.39394 22.6082C17.0207 20.2941 26.5021 21.415 32.9845 25.3985C33.7544 25.8725 33.9977 26.8806 33.5237 27.6495V27.6492ZM33.7444 21.6949C26.976 17.6748 15.8092 17.3051 9.34704 19.2664C8.30935 19.5811 7.21197 18.9953 6.8975 17.9576C6.58303 16.9194 7.16834 15.8228 8.20678 15.5073C15.6249 13.2554 27.9566 13.6905 35.7491 18.3165C36.6844 18.8704 36.9904 20.0759 36.4362 21.008C35.8845 21.9414 34.6757 22.2491 33.7454 21.6949H33.7444ZM57.4574 22.4653C53.8312 21.6006 53.1867 20.9937 53.1867 19.7186C53.1867 18.5139 54.3202 17.7031 56.0079 17.7031C57.6429 17.7031 59.2629 18.3187 60.9632 19.5861C61.0133 19.6245 61.0785 19.6398 61.1412 19.6298C61.2064 19.6203 61.2616 19.5854 61.2992 19.533L63.0696 17.0373C63.1424 16.9345 63.1223 16.7928 63.0245 16.7143C61.0008 15.0911 58.7238 14.3019 56.0606 14.3019C52.146 14.3019 49.4101 16.6514 49.4101 20.013C49.4101 23.6178 51.7699 24.8942 55.8474 25.8795C59.3156 26.6787 59.9024 27.3483 59.9024 28.545C59.9024 29.8716 58.7187 30.6966 56.8129 30.6966C54.6964 30.6966 52.9685 29.9819 51.0376 28.3118C50.99 28.2691 50.9248 28.2516 50.8646 28.2541C50.7994 28.2591 50.7417 28.2892 50.7016 28.3368L48.7155 30.6991C48.6327 30.7994 48.6427 30.9449 48.738 31.0301C50.9849 33.0363 53.7484 34.0945 56.7326 34.0945C60.9506 34.0945 63.6765 31.79 63.6765 28.2215C63.684 25.2105 61.881 23.5428 57.4649 22.4685L57.4574 22.4653ZM73.2209 18.8893C71.3928 18.8893 69.8931 19.6095 68.6543 21.0853V19.4242C68.6543 19.293 68.549 19.1862 68.4186 19.1862H65.1711C65.0407 19.1862 64.9354 19.293 64.9354 19.4242V37.8812C64.9354 38.0116 65.0407 38.1194 65.1711 38.1194H68.4186C68.549 38.1194 68.6543 38.0116 68.6543 37.8812V32.0558C69.8931 33.4425 71.3928 34.1221 73.2209 34.1221C76.6188 34.1221 80.0594 31.5066 80.0594 26.5064C80.0644 21.5053 76.6239 18.889 73.2234 18.889L73.2209 18.8893ZM76.2828 26.5064C76.2828 29.0515 74.7155 30.8295 72.4686 30.8295C70.2492 30.8295 68.5741 28.9713 68.5741 26.5064C68.5741 24.0414 70.2492 22.1836 72.4686 22.1836C74.6779 22.1834 76.2828 24.001 76.2828 26.5062V26.5064ZM88.8741 18.8893C84.4981 18.8893 81.07 22.2586 81.07 26.5609C81.07 30.817 84.4755 34.1497 88.8214 34.1497C93.2124 34.1497 96.6505 30.7919 96.6505 26.5064C96.6505 22.2356 93.235 18.8898 88.8741 18.8898V18.8893ZM88.8741 30.8546C86.5469 30.8546 84.7915 28.9838 84.7915 26.5052C84.7915 24.0153 86.4867 22.2085 88.8214 22.2085C91.1636 22.2085 92.929 24.0785 92.929 26.5596C92.929 29.049 91.2238 30.8546 88.8741 30.8546ZM105.994 19.1862H102.421V15.5334C102.421 15.4025 102.315 15.2957 102.185 15.2957H98.9375C98.8071 15.2957 98.6993 15.4025 98.6993 15.5334V19.1862H97.1395C97.0091 19.1862 96.9038 19.293 96.9038 19.4242V22.2145C96.9038 22.3454 97.0091 22.4525 97.1395 22.4525H98.6993V29.6734C98.6993 32.5899 100.151 34.0695 103.018 34.0695C104.181 34.0695 105.147 33.8287 106.057 33.3121C106.132 33.272 106.177 33.1918 106.177 33.1065V30.4483C106.177 30.3681 106.135 30.2903 106.064 30.2477C105.994 30.2026 105.906 30.2001 105.834 30.2377C105.209 30.5511 104.605 30.6966 103.928 30.6966C102.887 30.6966 102.421 30.2226 102.421 29.1644V22.4537H105.994C106.125 22.4537 106.23 22.3469 106.23 22.2157V19.4257C106.235 19.2945 106.13 19.1877 105.997 19.1877L105.994 19.1862ZM118.443 19.2005V18.7518C118.443 17.432 118.949 16.8435 120.083 16.8435C120.76 16.8435 121.304 16.9779 121.913 17.181C121.988 17.2046 122.066 17.1928 122.126 17.1479C122.189 17.103 122.224 17.031 122.224 16.9548V14.2189C122.224 14.1143 122.159 14.0218 122.056 13.9909C121.414 13.7996 120.592 13.6032 119.358 13.6032C116.361 13.6032 114.774 15.2919 114.774 18.485V19.1721H113.214C113.084 19.1721 112.976 19.279 112.976 19.4099V22.2145C112.976 22.3454 113.084 22.4525 113.214 22.4525H114.774V33.588C114.774 33.7209 114.882 33.8262 115.012 33.8262H118.257C118.39 33.8262 118.495 33.7209 118.495 33.588V22.4532H121.527L126.171 33.588C125.645 34.7566 125.126 34.9898 124.418 34.9898C123.847 34.9898 123.242 34.8193 122.628 34.4807C122.57 34.4506 122.5 34.4456 122.44 34.4632C122.377 34.4858 122.325 34.5309 122.299 34.5911L121.199 37.006C121.146 37.1214 121.191 37.2543 121.301 37.3145C122.45 37.9364 123.486 38.2022 124.767 38.2022C127.164 38.2022 128.491 37.0837 129.657 34.0795L135.289 19.5255C135.32 19.4522 135.309 19.3695 135.264 19.3045C135.222 19.2401 135.149 19.2012 135.071 19.2012H131.691C131.588 19.2012 131.498 19.2657 131.465 19.3607L128.002 29.2496L124.21 19.3542C124.175 19.2622 124.087 19.2012 123.99 19.2012H118.443V19.2005ZM111.225 19.1862H107.978C107.847 19.1862 107.74 19.293 107.74 19.4242V33.588C107.74 33.7209 107.847 33.8262 107.978 33.8262H111.225C111.356 33.8262 111.464 33.7209 111.464 33.588V19.4252C111.464 19.294 111.358 19.1872 111.225 19.1872V19.1862ZM109.62 12.7366C108.334 12.7366 107.291 13.7778 107.291 15.064C107.291 16.3509 108.334 17.3934 109.62 17.3934C110.907 17.3934 111.948 16.3509 111.948 15.064C111.948 13.778 110.904 12.7366 109.62 12.7366ZM138.063 23.7404C136.779 23.7404 135.778 22.7085 135.778 21.4554C135.778 20.2023 136.792 19.1586 138.076 19.1586C139.359 19.1586 140.36 20.1903 140.36 21.4424C140.36 22.6955 139.347 23.7404 138.063 23.7404ZM138.076 19.3858C136.904 19.3858 136.019 20.3161 136.019 21.4554C136.019 22.5942 136.899 23.512 138.063 23.512C139.234 23.512 140.119 22.5824 140.119 21.4424C140.119 20.3036 139.239 19.3858 138.076 19.3858ZM138.582 21.6773L139.229 22.5821H138.682L138.101 21.7521H137.602V22.5821H137.145V20.1837H138.213C138.773 20.1837 139.139 20.4689 139.139 20.9488C139.141 21.3421 138.913 21.5823 138.585 21.6773H138.582ZM138.196 20.5953H137.602V21.3538H138.196C138.492 21.3538 138.67 21.2086 138.67 20.9742C138.67 20.7274 138.492 20.5953 138.196 20.5953Z" fill="#1ED760"/>
</g>
<defs>
<clipPath id="clip0_3_521">
<rect width="140" height="48" fill="white" transform="translate(0.25)"/>
</clipPath>
</defs>
</svg>
