<svg width="120" height="48" viewBox="0 0 120 48" fill="none" xmlns="http://www.w3.org/2000/svg">
<path d="M38.5308 21.8009C38.5308 19.6682 36.3981 17.3934 32.8436 17.3934C28.8626 17.3934 24.3128 20.3791 23.6019 26.3507C22.891 32.3223 26.5877 35.0237 30.4265 35.0237C34.2654 35.0237 36.1137 33.6019 38.1043 31.6114C36.3981 29.4787 34.1232 30.4739 33.6967 30.6161C33.2701 30.9005 32.5592 31.1848 31.4218 31.1848C30 31.1848 28.436 30.4739 28.436 27.7725C37.8199 26.7773 38.5308 23.9336 38.5308 21.8009ZM33.981 22.0853C33.981 22.7962 33.6967 23.9336 29.0047 24.5024C30 20.9479 31.8483 20.6635 32.7014 20.6635C33.5545 20.8057 33.981 21.3744 33.981 22.0853ZM18.1991 22.654C18.1991 22.654 16.2085 28.91 16.0663 29.4787C16.0663 28.91 14.5024 17.6777 14.5024 17.6777C11.09 17.6777 9.24171 20.0948 8.38863 22.654C8.38863 22.654 5.97156 28.91 5.82938 29.4787C5.6872 29.0521 5.40284 22.7962 5.40284 22.7962C5.11848 19.6682 2.27488 17.6777 0 17.6777L2.8436 34.7393C6.3981 34.7393 8.38863 32.3223 9.38389 29.763C9.38389 29.763 11.5166 24.218 11.6588 23.9336C11.6588 24.218 13.2227 34.7393 13.2227 34.7393C16.7773 34.7393 18.7678 32.4645 19.763 30.0474L24.7393 17.6777C21.0427 17.6777 19.1943 20.0948 18.1991 22.654ZM51.7536 17.2512C49.6208 17.2512 47.9147 18.3886 46.4929 20.237L47.6303 10C44.6445 10 42.3697 12.5592 41.8009 16.2559L39.5261 34.5972C41.2322 34.5972 42.9384 34.1706 43.9336 32.891C44.7867 34.0284 46.0663 34.8815 47.9147 34.8815C52.891 34.8815 56.3033 29.1943 56.3033 23.7915C56.4455 18.8152 54.0284 17.2512 51.7536 17.2512ZM51.1848 26.0663C50.6161 29.0521 49.0521 31.0427 47.346 31.0427C45.782 31.0427 45.0711 30.3318 45.0711 30.3318C45.3554 27.7725 45.6398 26.0663 46.2085 24.6445C46.7772 23.2227 48.1991 21.09 49.6208 21.09C51.0427 21.2322 51.7536 23.0806 51.1848 26.0663ZM68.8152 17.6777H65.4028V17.5355C65.6872 15.2607 66.1137 14.1232 67.9621 13.981C69.0995 13.8389 69.6682 13.2701 69.8104 12.5592C69.9526 11.9905 70.237 10.1422 70.237 10.1422C63.2701 10.1422 61.1374 13.128 60.5687 17.6777V17.8199H60.4265C59.2891 17.8199 58.0095 19.0995 57.8673 20.6635L57.7251 21.2322H60L58.0095 37.1564L57.4408 40C57.5829 40 57.5829 40 57.7251 40C60.9953 39.8578 62.9858 37.2986 63.5545 33.6019L65.1185 21.09H66.2559C67.2512 21.09 68.5308 20.0948 68.8152 18.2464V17.6777ZM86.7299 17.3934C82.7488 17.3934 79.0521 20.3791 77.9147 24.9289C76.7772 29.4787 78.4834 35.0237 84.3128 35.0237C90.1422 35.0237 93.5545 29.3365 93.5545 24.6445C93.4123 19.9526 90.2844 17.3934 86.7299 17.3934ZM88.2938 25.9242C88.1516 28.0569 87.1564 31.1848 84.5971 31.1848C82.0379 31.1848 82.4645 27.4882 82.6066 25.782C82.891 23.9336 83.8863 21.2322 86.1611 21.2322C88.2938 21.2322 88.5782 23.6493 88.2938 25.9242ZM113.175 22.654C113.175 22.654 111.185 28.91 111.043 29.4787C111.043 28.91 109.479 17.6777 109.479 17.6777C106.066 17.6777 104.218 20.0948 103.365 22.654C103.365 22.654 100.948 28.91 100.806 29.4787C100.806 29.0521 100.379 22.7962 100.379 22.7962C100.237 19.6682 97.2512 17.8199 94.9763 17.8199L97.8199 34.8815C101.374 34.8815 103.365 32.4645 104.36 29.9052C104.36 29.9052 106.493 24.3602 106.635 24.0758C106.635 24.3602 108.199 34.8815 108.199 34.8815C111.754 34.8815 113.744 32.6066 114.739 30.1896L119.431 17.6777C115.877 17.6777 114.028 20.0948 113.175 22.654ZM72.0853 10.1422L69.2417 33.4597L68.673 36.3033C68.8152 36.3033 68.8152 36.3033 68.9573 36.3033C72.0853 36.3033 74.3602 33.4597 74.6445 30.0474L76.3507 16.6825C76.7772 12.7014 74.218 10.1422 72.0853 10.1422Z" fill="white"/>
</svg>
